<?xml version="1.0" standalone="no"?>
<!DOCTYPE svg PUBLIC "-//W3C//DTD SVG 20010904//EN"
 "http://www.w3.org/TR/2001/REC-SVG-20010904/DTD/svg10.dtd">
<svg version="1.0" xmlns="http://www.w3.org/2000/svg"
 width="1028.000000pt" height="1030.000000pt" viewBox="0 0 1028.000000 1030.000000"
 preserveAspectRatio="xMidYMid meet">

<g transform="translate(0.000000,1030.000000) scale(0.100000,-0.100000)"
fill="#000000" stroke="none">
<path d="M0 5150 l0 -5150 5140 0 5140 0 0 5150 0 5150 -5140 0 -5140 0 0
-5150z m2270 3154 c354 -62 670 -287 870 -620 98 -161 171 -373 186 -538 l7
-76 63 0 c91 0 94 -4 94 -160 0 -104 -3 -132 -16 -144 -12 -13 -40 -16 -135
-16 -119 0 -119 0 -119 -24 0 -44 12 -86 26 -86 7 0 37 -11 66 -23 73 -33 143
-104 181 -185 28 -59 32 -77 32 -152 0 -71 -5 -95 -27 -142 -51 -109 -151
-192 -257 -213 l-54 -11 -28 -105 c-47 -180 -112 -329 -195 -446 l-44 -62 46
-20 c132 -59 289 -201 377 -342 119 -191 197 -462 197 -684 0 -78 -3 -95 -19
-109 -14 -13 -28 -16 -50 -11 l-31 7 0 -160 c0 -129 -4 -172 -19 -221 -48
-155 -188 -288 -361 -341 -51 -16 -55 -20 -58 -51 -2 -19 13 -303 33 -631 39
-659 41 -718 23 -736 -9 -9 -253 -12 -1035 -12 l-1023 0 -14 22 c-12 20 -9
105 25 668 21 355 38 662 36 683 -2 39 -2 39 -72 61 -138 44 -260 148 -323
275 l-37 75 -3 183 -4 184 -31 -6 c-59 -11 -70 7 -68 120 7 439 218 837 533
1005 52 27 76 45 71 53 -5 7 -24 37 -44 67 -76 116 -172 350 -194 475 -10 51
-21 65 -54 65 -33 0 -136 48 -177 83 -18 15 -46 48 -62 75 -95 149 -76 339 47
462 48 48 137 100 172 100 11 0 18 12 23 38 12 76 19 72 -112 72 -163 0 -157
-6 -157 160 0 155 3 160 96 160 l58 0 6 58 c59 498 386 931 842 1115 190 77
480 102 713 61z m6020 -2959 l0 -325 -105 0 -105 0 0 325 0 325 105 0 105 0 0
-325z m-4110 58 l100 -206 0 -89 0 -88 -105 0 -105 0 0 95 0 95 -95 190 c-52
104 -95 194 -95 200 0 6 39 10 100 10 l100 0 100 -207z m300 202 c0 -13 -186
-375 -192 -375 -10 0 -98 175 -98 194 0 7 21 53 46 100 l46 86 99 0 c54 0 99
-2 99 -5z m2794 -7 c-4 -7 -30 -39 -57 -70 l-50 -58 -113 0 -114 0 0 70 0 70
171 0 c133 0 169 -3 163 -12z m176 -48 l0 -60 -192 -235 -193 -235 -72 0 -73
0 0 55 0 55 192 240 192 240 73 0 73 0 0 -60z m-2578 -117 l58 -57 0 -178 0
-178 -100 0 -100 0 0 170 0 170 -134 0 c-113 0 -135 2 -140 16 -12 30 -6 48
26 81 l32 33 150 0 150 0 58 -57z m338 -258 l0 -315 -100 0 -100 0 0 315 0
315 100 0 100 0 0 -315z m252 258 l58 -57 0 -120 0 -120 -57 -58 -57 -58 -88
0 -88 0 0 60 0 60 45 0 45 0 0 109 0 110 -42 3 c-41 3 -43 5 -46 37 -3 26 3
40 24 62 25 26 35 29 88 29 60 0 61 0 118 -57z m585 5 l53 -52 0 -183 0 -183
-100 0 -100 0 0 170 0 169 -132 3 -133 3 -3 34 c-3 26 3 40 24 62 l28 29 155
0 155 0 53 -52z m320 -44 l32 -96 -42 -117 c-23 -64 -46 -116 -51 -116 -8 0
-176 398 -176 417 0 4 46 8 103 8 l103 0 31 -96z m312 69 c-6 -16 -57 -152
-114 -303 -57 -151 -106 -283 -110 -292 -6 -15 -21 -18 -100 -18 -52 0 -96 3
-99 8 -3 6 187 525 224 610 9 21 15 22 110 22 l100 0 -11 -27z m1021 -208 l0
-235 -43 0 c-39 0 -48 5 -100 58 l-57 58 0 119 0 119 57 58 c52 53 61 58 100
58 l43 0 0 -235z m257 183 l53 -52 0 -93 0 -93 -146 0 -145 0 3 48 3 47 48 3
c45 3 47 5 47 32 0 27 -2 29 -47 32 l-48 3 -3 63 -3 62 93 0 92 0 53 -52z
m647 40 c-4 -7 -71 -101 -148 -207 l-141 -195 -3 142 -3 141 43 65 43 66 108
0 c84 0 106 -3 101 -12z m508 -45 l58 -57 0 -178 0 -178 -105 0 -105 0 0 170
0 169 -132 3 -133 3 -3 34 c-3 26 3 40 24 62 l28 29 155 0 155 0 58 -57z
m-4402 -178 l0 -45 -50 0 -50 0 0 -35 0 -35 50 0 c50 0 50 0 50 -33 0 -23 -8
-41 -28 -60 -26 -25 -35 -27 -107 -27 -78 0 -80 1 -117 37 -36 35 -38 40 -38
102 0 62 2 67 37 103 l37 38 108 0 108 0 0 -45z m1178 -2 l3 -43 -50 0 -51 0
0 -34 c0 -34 1 -35 48 -38 41 -3 47 -6 50 -27 3 -16 -7 -34 -29 -57 -32 -33
-35 -34 -113 -34 -79 0 -81 1 -118 37 -36 35 -38 40 -38 102 0 62 2 67 37 103
l38 39 110 -3 110 -3 3 -42z m3062 2 l0 -45 -50 0 -50 0 0 -35 0 -35 50 0 c50
0 50 0 50 -33 0 -23 -8 -41 -28 -60 -26 -25 -35 -27 -112 -27 -84 0 -84 0
-122 37 -36 35 -38 41 -38 97 0 57 2 62 42 103 l42 43 108 0 108 0 0 -45z
m-398 -97 c35 -67 65 -126 66 -130 2 -5 -48 -8 -110 -8 l-114 0 -16 49 -15 48
59 82 c33 44 61 81 63 81 2 0 33 -55 67 -122z m-1112 -68 l0 -70 -176 0 c-137
0 -174 3 -168 13 4 6 30 38 58 70 l50 57 118 0 118 0 0 -70z m550 18 c0 -21
-9 -41 -27 -60 -26 -27 -29 -28 -135 -28 l-108 0 0 60 0 60 135 0 135 0 0 -32z
m365 -473 c0 -29 -2 -30 -45 -30 -35 0 -45 4 -48 18 -7 37 6 48 50 45 40 -3
43 -5 43 -33z m-3065 -82 l0 -66 23 21 c32 30 60 28 102 -9 34 -30 35 -33 35
-103 0 -66 -2 -74 -28 -99 -28 -27 -31 -28 -138 -25 l-109 3 -3 160 c-1 87 0
165 2 172 4 8 25 13 61 13 l55 0 0 -67z m1768 -75 c2 -130 4 -138 22 -138 16
0 20 -7 20 -35 l0 -35 -53 0 c-45 0 -57 4 -80 28 -27 28 -27 29 -27 176 l0
147 58 -3 57 -3 3 -137z m-2750 70 l3 -38 -140 0 -141 0 0 40 0 41 138 -3 137
-3 3 -37z m4090 0 c2 -29 0 -38 -12 -38 -13 0 -16 -15 -16 -85 0 -69 3 -85 15
-85 10 0 15 -11 15 -35 l0 -35 -90 0 -90 0 0 35 c0 24 5 35 15 35 12 0 15 16
15 85 0 69 -3 85 -15 85 -10 0 -15 10 -15 33 0 19 3 37 7 41 4 4 43 5 88 4
l80 -3 3 -37z m-3573 -49 l35 -31 0 -99 0 -99 -55 0 c-45 0 -55 3 -55 17 0 15
-1 15 -18 0 -28 -25 -100 -22 -129 5 -30 28 -30 74 -1 105 18 19 32 23 85 23
49 0 63 3 63 15 0 12 -14 15 -70 15 -82 0 -98 15 -60 56 21 21 32 24 96 24 68
0 76 -2 109 -31z m1177 -6 l38 -37 0 -93 0 -93 -60 0 c-40 0 -60 4 -60 12 0 9
-3 9 -12 0 -18 -18 -108 -15 -130 5 -23 21 -24 89 -1 115 12 14 31 18 80 18
49 0 63 3 63 15 0 12 -14 15 -70 15 -68 0 -70 1 -70 24 0 39 35 56 114 56 67
0 72 -1 108 -37z m456 -95 l3 -128 -56 0 -55 0 0 123 c0 68 3 127 7 131 4 4
28 6 53 4 l45 -3 3 -127z m137 101 l35 -31 0 -99 0 -99 -60 0 -60 0 0 90 c0
83 -1 90 -20 90 -28 0 -27 44 2 64 34 24 63 19 103 -15z m913 -101 l3 -128
-61 0 -60 0 0 123 c0 68 3 127 7 131 4 4 30 6 58 4 l50 -3 3 -127z m1446 111
c14 -11 26 -29 26 -40 0 -16 -7 -19 -55 -19 -30 0 -55 5 -55 10 0 6 -11 10
-25 10 -16 0 -25 -6 -25 -15 0 -11 12 -15 52 -15 45 0 57 -4 85 -32 21 -20 33
-42 33 -58 0 -31 -47 -80 -76 -80 -17 0 -19 -5 -16 -33 6 -51 -28 -87 -84 -87
l-44 0 0 40 c0 39 1 40 34 40 25 0 35 5 39 20 5 18 0 20 -41 20 -50 0 -92 28
-92 62 0 15 8 18 55 18 42 0 55 -3 55 -15 0 -9 9 -15 25 -15 18 0 25 5 25 20
0 17 -7 20 -52 20 -43 0 -57 5 -80 27 -37 35 -36 69 2 109 29 29 36 31 109 32
66 2 83 -1 105 -19z m-4724 -124 l0 -115 -60 0 -60 0 0 115 0 115 60 0 60 0 0
-115z m1140 -452 l0 -88 25 38 c25 36 28 37 86 37 66 0 66 1 17 -62 l-29 -37
36 -70 c19 -39 35 -73 35 -76 0 -3 -26 -5 -58 -5 -54 0 -60 2 -72 28 -7 15
-15 22 -17 14 -3 -6 -9 -10 -14 -6 -5 3 -9 -4 -9 -16 0 -19 -5 -21 -57 -18
l-58 3 -3 160 c-1 87 0 165 2 172 4 8 25 13 61 13 l55 0 0 -87z m580 -53 l0
-140 25 0 c22 0 25 -4 25 -35 l0 -35 -53 0 c-45 0 -57 4 -80 28 -27 28 -27 29
-27 175 l0 147 55 0 55 0 0 -140z m-1792 45 l3 -60 39 3 40 4 0 59 0 59 55 0
55 0 0 -160 0 -160 -55 0 -55 0 0 60 0 60 -40 0 -40 0 0 -60 0 -60 -60 0 -60
0 0 153 c0 85 3 157 7 161 4 4 30 6 58 4 l50 -3 3 -60z m747 -26 l35 -31 0
-99 0 -99 -55 0 c-45 0 -55 3 -55 17 0 15 -1 15 -18 0 -28 -25 -100 -22 -129
5 -30 28 -30 74 -1 105 18 19 32 23 85 23 49 0 63 3 63 15 0 12 -14 15 -70 15
-82 0 -98 15 -60 56 21 21 32 24 96 24 68 0 76 -2 109 -31z m1628 -7 l38 -39
-3 -89 -3 -89 -57 -3 c-49 -3 -58 0 -58 14 0 16 -1 16 -18 1 -11 -11 -36 -17
-62 -17 -57 0 -80 21 -80 73 0 61 20 77 97 77 49 0 63 3 63 15 0 12 -14 15
-70 15 -68 0 -70 1 -70 24 0 39 35 56 115 56 69 0 72 -1 108 -38z m454 18 c5
-20 5 -20 30 0 36 28 70 25 104 -9 23 -23 29 -39 29 -70 l0 -41 -55 0 c-54 0
-55 1 -55 29 0 23 -5 30 -25 33 l-25 5 0 -94 0 -94 -57 3 -58 3 -3 114 c-2 75
1 118 9 127 7 8 30 14 56 14 36 0 46 -4 50 -20z m567 14 c13 -5 16 -26 16
-130 l0 -124 -60 0 -60 0 0 123 c0 68 3 127 7 130 8 9 76 9 97 1z m830 -53
l20 -55 15 45 c9 24 20 50 24 57 8 12 89 17 100 6 8 -8 -73 -237 -87 -246 -6
-4 -34 -8 -61 -8 l-50 0 -46 123 c-26 67 -44 126 -42 130 3 4 28 7 56 5 l52
-3 19 -54z m691 28 c32 -28 35 -36 35 -86 l0 -55 -80 4 c-66 2 -80 0 -80 -12
0 -12 13 -14 75 -12 73 4 75 3 75 -20 0 -41 -18 -48 -114 -48 -88 0 -91 1
-123 32 -30 29 -33 37 -33 92 0 55 3 63 36 97 33 34 39 36 104 37 65 1 72 -1
105 -29z m-4295 -490 l0 -40 -42 3 c-42 3 -43 4 -46 41 l-3 37 45 0 46 0 0
-41z m128 4 c-3 -37 -4 -38 -45 -41 l-43 -3 0 40 0 41 46 0 45 0 -3 -37z
m3062 17 c15 -28 76 -28 85 1 5 14 14 19 28 17 26 -4 26 -39 -2 -77 -17 -24
-17 -25 21 -59 l38 -34 0 -116 c0 -112 -1 -117 -27 -144 -25 -26 -32 -28 -105
-28 -71 0 -79 2 -94 25 -23 35 -10 45 57 45 57 0 59 1 59 27 0 25 -1 25 -18
10 -30 -27 -84 -22 -115 11 -24 25 -27 36 -27 97 0 64 2 71 32 102 18 18 38
33 47 33 12 0 12 3 -2 18 -19 21 -31 67 -22 81 10 17 33 13 45 -9z m-870 -140
l0 -140 25 0 c22 0 25 -4 25 -35 l0 -35 -53 0 c-45 0 -57 4 -80 28 -27 28 -27
29 -27 175 l0 147 55 0 55 0 0 -140z m455 100 l0 -35 -57 -3 -58 -3 0 41 0 41
58 -3 57 -3 0 -35z m1015 0 l0 -40 -55 0 -55 0 0 40 0 40 55 0 55 0 0 -40z
m-4246 -24 c14 -19 26 -44 26 -55 0 -19 -6 -21 -55 -21 -42 0 -55 3 -55 15 0
11 -11 15 -40 15 l-40 0 0 -84 0 -84 45 -4 c41 -3 45 -1 45 19 0 18 -6 23 -25
23 -22 0 -25 4 -25 35 l0 35 75 0 75 0 0 -90 0 -90 -122 0 -122 0 -33 32 c-33
32 -33 33 -33 126 0 93 0 94 33 126 31 32 34 33 128 35 l96 1 27 -34z m440
-32 c13 -5 16 -23 16 -95 0 -82 1 -89 20 -89 19 0 20 7 20 90 0 86 1 90 24 96
13 3 38 4 57 2 l34 -3 3 -127 3 -128 -61 0 c-40 0 -60 4 -60 12 0 9 -3 9 -12
0 -24 -24 -80 -14 -115 20 -33 32 -33 33 -33 123 0 51 3 95 7 98 8 9 76 9 97
1z m580 -16 c8 -13 18 -35 21 -50 10 -40 19 -35 36 20 14 46 16 47 58 50 24 2
48 -1 53 -6 7 -7 -3 -46 -26 -112 -53 -148 -47 -141 -113 -138 l-55 3 -44 118
c-24 65 -42 123 -39 128 4 5 26 9 50 9 35 0 48 -5 59 -22z m710 -17 c33 -34
37 -43 34 -82 l-3 -44 -83 0 c-66 0 -82 -3 -82 -15 0 -12 13 -14 75 -12 73 4
75 3 75 -20 0 -41 -18 -48 -114 -48 -84 0 -92 2 -118 27 -25 24 -28 33 -28 97
0 65 2 73 30 102 29 29 36 31 104 32 71 2 73 1 110 -37z m454 13 c3 -22 3 -22
27 2 31 31 66 30 104 -2 31 -26 31 -26 31 -130 l0 -104 -55 0 -55 0 0 89 c0
87 -1 89 -25 93 l-25 5 0 -94 0 -94 -57 3 -58 3 -3 114 c-3 134 1 143 67 139
38 -2 47 -7 49 -24z m1036 20 c13 -5 16 -26 16 -130 l0 -124 -60 0 -60 0 0
123 c0 68 3 127 7 130 8 9 76 9 97 1z m1024 -126 l3 -128 -56 0 -55 0 0 123
c0 68 3 127 7 131 4 4 28 6 53 4 l45 -3 3 -127z m-3208 -553 l0 -175 -55 0
-55 0 0 175 0 175 55 0 55 0 0 -175z m590 0 l0 -175 -55 0 -55 0 0 175 0 175
55 0 55 0 0 -175z m1750 135 l0 -40 -55 0 -55 0 0 40 0 40 55 0 55 0 0 -40z
m-3382 -22 c29 -29 32 -38 32 -88 0 -44 -5 -61 -20 -75 -19 -17 -19 -18 5 -66
14 -27 25 -51 25 -54 0 -3 -27 -5 -60 -5 l-60 0 -22 45 c-14 29 -29 45 -40 45
-15 0 -18 -8 -18 -45 l0 -45 -60 0 -60 0 0 153 c0 85 3 156 6 160 3 3 58 6
123 6 l116 0 33 -31z m450 -161 l3 -127 -28 0 c-16 0 -39 11 -55 27 -26 24
-28 33 -28 99 0 70 1 73 36 104 62 54 69 44 72 -103z m136 94 c33 -34 37 -43
34 -82 l-3 -44 -77 -3 -78 -3 0 31 c0 25 4 30 25 30 16 0 25 6 25 15 0 9 -9
15 -25 15 -22 0 -25 4 -25 33 0 42 5 47 50 47 29 0 44 -8 74 -39z m588 2 l38
-37 0 -93 0 -93 -60 0 -60 0 0 90 c0 83 -1 90 -20 90 -25 0 -27 36 -3 62 26
29 63 22 105 -19z m590 0 c36 -35 38 -41 38 -97 0 -54 -3 -63 -32 -93 -27 -28
-39 -33 -80 -33 l-48 0 0 35 c0 28 4 35 20 35 18 0 20 7 20 55 0 48 -2 55 -20
55 -25 0 -27 36 -3 62 26 29 63 22 105 -19z m592 -2 c33 -34 37 -43 34 -82
l-3 -44 -83 0 c-66 0 -82 -3 -82 -15 0 -12 13 -14 75 -12 73 4 75 3 75 -20 0
-41 -18 -48 -114 -48 -84 0 -92 2 -118 27 -25 24 -28 33 -28 97 0 65 2 73 30
102 29 29 36 31 104 32 71 2 73 1 110 -37z m454 18 l8 -20 18 20 c46 51 136
-3 136 -82 l0 -38 -57 3 c-55 3 -58 4 -61 31 -2 19 -9 27 -23 27 -17 0 -19 -8
-19 -90 l0 -90 -60 0 -60 0 0 123 c0 68 3 127 7 130 3 4 28 7 55 7 40 0 50 -4
56 -21z m570 -111 l3 -128 -56 0 -55 0 0 123 c0 68 3 127 7 131 4 4 28 6 53 4
l45 -3 3 -127z m-2771 -73 c12 -32 -26 -55 -89 -55 l-58 0 0 35 0 35 70 0 c54
0 72 -4 77 -15z"/>
<path d="M1860 8204 c-14 -2 -40 -7 -57 -10 l-33 -5 0 -559 0 -560 255 0 255
0 0 559 0 559 -22 7 c-27 8 -361 16 -398 9z"/>
<path d="M1602 8140 c-254 -91 -509 -324 -646 -594 -71 -139 -126 -328 -126
-432 l0 -44 415 0 415 0 0 545 c0 300 -1 545 -2 544 -2 0 -27 -9 -56 -19z"/>
<path d="M2390 7614 l0 -544 415 0 415 0 0 35 c0 91 -62 310 -122 430 -137
273 -402 519 -655 606 l-53 18 0 -545z"/>
<path d="M670 6910 l0 -50 1355 0 1355 0 0 50 0 50 -1355 0 -1355 0 0 -50z"/>
<path d="M937 6703 c-3 -27 -4 -50 -2 -51 2 -2 20 -7 39 -12 33 -7 36 -6 36
14 0 11 3 38 6 59 l7 37 -40 0 -40 0 -6 -47z"/>
<path d="M1126 6704 c-3 -26 -6 -73 -6 -105 0 -68 -25 -106 -63 -95 -182 52
-259 43 -345 -38 -57 -53 -77 -101 -77 -186 0 -85 20 -133 77 -186 44 -42 88
-63 145 -70 104 -12 91 6 137 -179 74 -291 193 -493 369 -626 147 -111 307
-168 533 -189 372 -35 698 71 901 293 131 144 235 371 283 620 13 66 21 72
105 81 250 28 318 354 100 482 -72 42 -141 41 -292 -2 -34 -9 -63 27 -63 80 0
23 -3 71 -6 105 l-7 61 -892 0 -892 0 -7 -46z m523 -83 c65 -47 85 -145 42
-215 -29 -47 -99 -80 -153 -73 -151 20 -191 232 -56 301 45 23 125 17 167 -13z
m921 10 c98 -52 113 -180 29 -255 -67 -62 -154 -58 -219 9 -29 30 -34 43 -38
95 -4 52 -1 66 21 98 45 69 135 92 207 53z m-1712 -197 c31 -22 27 -56 -13
-104 -19 -23 -35 -47 -35 -53 0 -7 10 -32 21 -57 19 -42 19 -45 3 -57 -22 -16
-49 -1 -81 47 -42 61 -24 174 35 220 30 24 41 25 70 4z m2439 -54 c25 -47 30
-117 12 -153 -19 -36 -62 -77 -81 -77 -28 0 -31 24 -9 66 26 49 26 56 -3 91
-53 63 -54 103 -3 122 34 13 59 -2 84 -49z m-1571 -666 c59 -58 132 -91 223
-102 153 -18 293 21 377 106 61 61 124 55 124 -13 0 -29 -89 -112 -158 -148
-89 -46 -158 -62 -272 -61 -154 0 -288 52 -375 145 -49 53 -53 64 -29 97 24
35 57 27 110 -24z"/>
<path d="M3030 6721 c0 -16 3 -42 6 -58 5 -28 8 -30 37 -24 30 6 32 9 35 59
l3 52 -40 0 c-38 0 -41 -2 -41 -29z"/>
<path d="M1131 5184 c-250 -113 -439 -399 -496 -747 -17 -105 -19 -167 -6
-167 21 0 476 161 482 171 3 6 9 71 13 146 7 138 13 166 41 177 23 8 65 -14
71 -39 3 -12 -6 -217 -20 -456 -14 -239 -26 -449 -26 -466 l0 -33 235 0 235 0
0 594 0 594 -67 23 c-128 42 -284 131 -347 198 -35 37 -45 37 -115 5z"/>
<path d="M2795 5174 c-83 -74 -237 -161 -352 -199 l-53 -17 0 -594 0 -594 236
0 237 0 -6 88 c-3 48 -16 266 -28 484 -24 421 -24 419 22 431 14 4 29 -2 44
-17 21 -21 23 -35 30 -173 l7 -150 244 -83 c135 -45 248 -80 251 -76 4 4 2 48
-5 99 -47 372 -223 666 -473 791 -50 25 -96 46 -103 46 -6 -1 -29 -17 -51 -36z"/>
<path d="M1770 4354 l0 -584 255 0 255 0 0 584 0 583 -52 -9 c-70 -11 -350
-11 -410 0 l-48 9 0 -583z"/>
<path d="M902 4247 l-183 -62 3 -195 c3 -179 5 -199 26 -241 32 -66 84 -122
153 -167 56 -37 143 -71 154 -60 3 2 14 153 25 334 10 181 21 357 24 392 4 45
2 62 -7 61 -7 0 -94 -28 -195 -62z"/>
<path d="M2945 4243 c3 -38 12 -187 20 -333 21 -376 23 -390 44 -390 35 0 162
72 210 119 27 26 62 72 78 102 28 53 28 57 31 249 l3 195 -188 63 c-104 34
-192 62 -196 62 -5 0 -6 -30 -2 -67z"/>
<path d="M1180 3652 c0 -23 -70 -1210 -75 -1277 l-7 -80 49 49 c103 105 209
155 343 163 163 10 292 -40 411 -158 l69 -70 0 415 c0 364 2 417 16 430 21 21
57 20 77 -2 15 -17 17 -61 17 -430 l0 -411 68 67 c214 214 519 219 734 12 l68
-65 -6 65 c-5 72 -74 1254 -74 1283 0 16 -47 17 -845 17 -465 0 -845 -4 -845
-8z"/>
<path d="M1402 2381 c-108 -38 -199 -117 -264 -230 l-30 -51 417 0 416 0 -28
51 c-50 89 -126 165 -210 206 -66 33 -85 37 -161 40 -65 2 -100 -2 -140 -16z"/>
<path d="M2400 2382 c-70 -23 -103 -44 -168 -106 -45 -44 -122 -150 -122 -170
0 -3 185 -6 410 -6 226 0 410 4 410 8 0 5 -17 35 -38 68 -54 83 -149 167 -219
195 -79 31 -198 35 -273 11z"/>
<path d="M5290 4391 c0 -57 1 -58 25 -53 23 4 25 9 25 58 0 51 -1 54 -25 54
-24 0 -25 -3 -25 -59z"/>
<path d="M4690 4356 c0 -8 13 -16 30 -18 24 -4 30 -1 30 14 0 13 -8 18 -30 18
-19 0 -30 -5 -30 -14z"/>
<path d="M5870 4355 c0 -9 9 -15 25 -15 16 0 25 6 25 15 0 9 -9 15 -25 15 -16
0 -25 -6 -25 -15z"/>
<path d="M4770 3756 c0 -8 13 -16 30 -18 24 -4 30 -1 30 14 0 13 -8 18 -30 18
-19 0 -30 -5 -30 -14z"/>
<path d="M6400 3756 c0 -7 11 -16 25 -18 19 -4 25 -1 25 13 0 14 -7 19 -25 19
-15 0 -25 -6 -25 -14z"/>
<path d="M8950 3835 c0 -10 10 -15 30 -15 20 0 30 5 30 15 0 10 -10 15 -30 15
-20 0 -30 -5 -30 -15z"/>
<path d="M7980 3206 c0 -49 2 -54 25 -58 24 -5 25 -4 25 53 0 56 -1 59 -25 59
-24 0 -25 -3 -25 -54z"/>
<path d="M5920 3248 c0 -13 8 -18 30 -18 19 0 30 5 30 14 0 8 -13 16 -30 18
-24 4 -30 1 -30 -14z"/>
<path d="M4160 2680 l0 -40 40 0 40 0 0 40 0 40 -40 0 -40 0 0 -40z"/>
<path d="M6540 2648 c0 -13 8 -18 30 -18 19 0 30 5 30 14 0 8 -13 16 -30 18
-24 4 -30 1 -30 -14z"/>
</g>
</svg>
